HIERARCHY
ROOT RootJoint
{
    OFFSET   0.000000   0.000000   0.000000
    CHANNELS 6 Xposition Yposition Zposition Xrotation Yrotation Zrotation
    JOINT pelvis_lowerback
    {
        OFFSET   0.000000   0.093605   0.000000
        CHANNELS 3 Xrotation Yrotation Zrotation
        JOINT lowerback_torso
        {
            OFFSET   0.000000   0.100000   0.000000
            CHANNELS 3 Xrotation Yrotation Zrotation
            JOINT torso_head
            {
                OFFSET   0.000000   0.282350   0.000000
                CHANNELS 3 Xrotation Yrotation Zrotation
                End Site
                {
                    OFFSET   0.000000   0.192650   0.000000
                }
            }
            JOINT rTorso_Clavicle
            {
                OFFSET  -0.001000   0.157500   0.000000
                CHANNELS 3 Xrotation Yrotation Zrotation
                JOINT rShoulder
                {
                    OFFSET  -0.117647   0.000000   0.000000
                    CHANNELS 3 Xrotation Yrotation Zrotation
                    JOINT rElbow
                    {
                        OFFSET  -0.245000   0.000000   0.000000
                        CHANNELS 3 Xrotation Yrotation Zrotation
                        JOINT rWrist
                        {
                            OFFSET  -0.240000   0.000000   0.000000
                            CHANNELS 3 Xrotation Yrotation Zrotation
                            End Site
                            {
                                OFFSET  -0.116353  -0.002500   0.000000
                            }
                        }
                    }
                }
            }
            JOINT lTorso_Clavicle
            {
                OFFSET   0.001000   0.157500   0.000000
                CHANNELS 3 Xrotation Yrotation Zrotation
                JOINT lShoulder
                {
                    OFFSET   0.117647   0.000000   0.000000
                    CHANNELS 3 Xrotation Yrotation Zrotation
                    JOINT lElbow
                    {
                        OFFSET   0.245000   0.000000   0.000000
                        CHANNELS 3 Xrotation Yrotation Zrotation
                        JOINT lWrist
                        {
                            OFFSET   0.240000   0.000000   0.000000
                            CHANNELS 3 Xrotation Yrotation Zrotation
                            End Site
                            {
                                OFFSET   0.116353  -0.002500   0.000000
                            }
                        }
                    }
                }
            }
        }
    }
    JOINT rHip
    {
        OFFSET  -0.100000  -0.051395   0.000000
        CHANNELS 3 Xrotation Yrotation Zrotation
        JOINT rKnee
        {
            OFFSET   0.000000  -0.410000   0.000000
            CHANNELS 3 Xrotation Yrotation Zrotation
            JOINT rAnkle
            {
                OFFSET   0.000000  -0.390000   0.000000
                CHANNELS 3 Xrotation Yrotation Zrotation
                JOINT rToeJoint
                {
                    OFFSET   0.000000  -0.050000   0.130000
                    CHANNELS 3 Xrotation Yrotation Zrotation
                    End Site
                    {
                        OFFSET  -0.010000   0.002000   0.060000
                    }
                }
            }
        }
    }
    JOINT lHip
    {
        OFFSET   0.100000  -0.051395   0.000000
        CHANNELS 3 Xrotation Yrotation Zrotation
        JOINT lKnee
        {
            OFFSET   0.000000  -0.410000   0.000000
            CHANNELS 3 Xrotation Yrotation Zrotation
            JOINT lAnkle
            {
                OFFSET   0.000000  -0.390000   0.000000
                CHANNELS 3 Xrotation Yrotation Zrotation
                JOINT lToeJoint
                {
                    OFFSET   0.000000  -0.050000   0.130000
                    CHANNELS 3 Xrotation Yrotation Zrotation
                    End Site
                    {
                        OFFSET   0.010000   0.002000   0.060000
                    }
                }
            }
        }
    }
}
MOTION
Frames: 7
Frame Time:   0.016667
  2.099652   0.922409   4.231066  -0.093083  -0.516761  -0.028818  -0.026802  -0.173107  -0.111172   0.125489   0.394552   0.387009   0.643569  -0.072782  -0.328944   0.008453   0.005617   0.085782   0.836343   0.395130  -1.721455   0.001367  -1.113076   0.000735  -1.344804   0.615386   0.320689   0.257508   0.186070  -0.869772  -0.057055   0.282331   2.146725  -0.000482  -0.365303   0.000048  -0.682929  -0.385309  -0.397991  -1.561033   0.098626  -0.007395   3.202847   0.000056  -0.001264  -1.238020  -0.455931   0.091030  -0.596248   0.000021   0.000445  -1.885329   0.243630   0.048175   4.440913  -0.000094  -0.001051  -2.474526   0.005851  -0.078483   1.923351   0.000100  -0.000524
  2.099414   0.922074   4.231502  -0.043580  -0.688371  -0.060593  -0.325194  -0.156410  -0.179355   0.370796   0.401365   0.405400   0.433173  -0.128698  -0.316103  -0.411218  -0.254187   0.331285   1.022997   0.592648  -1.293613   0.001591  -0.782359   0.000752  -1.289653   0.718081  -0.113102  -0.220750   0.594464  -0.824991   0.646959  -0.135591   1.700143   0.000115  -0.696751   0.000212  -0.727903  -0.475714   0.230905  -2.008050   0.233159   0.057310   4.022508  -0.000025  -0.000992  -1.611103  -0.597832  -0.094824  -0.602367   0.000004   0.000312  -2.332662   0.312259   0.107142   5.347095  -0.000142  -0.001009  -2.918173   0.105660  -0.135834   1.622710   0.000052  -0.000394
  2.099177   0.921738   4.231937   0.005829  -0.860009  -0.092221  -0.623567  -0.139358  -0.247450   0.616102   0.408257   0.423762   0.222790  -0.184661  -0.303468  -0.829785  -0.515781   0.574887   1.208178   0.791554  -0.866399   0.001816  -0.451643   0.000768  -1.233725   0.820355  -0.547002  -0.699375   1.002470  -0.776798   1.347725  -0.558956   1.258710   0.000714  -1.028200   0.000379  -0.771883  -0.566606   0.859739  -2.455225   0.367183   0.123063   4.842169  -0.000102  -0.000718  -1.984655  -0.738520  -0.281603  -0.608487  -0.000012   0.000179  -2.780070   0.380426   0.166644   6.253276  -0.000190  -0.000966  -3.361721   0.205909  -0.192411   1.322069   0.000003  -0.000265
  2.098939   0.921403   4.232373   0.055146  -1.031674  -0.123702  -0.921918  -0.121952  -0.315456   0.861405   0.415227   0.442094   0.012418  -0.240670  -0.291038  -1.247258  -0.779144   0.816583   1.391881   0.991834  -0.439807   0.002040  -0.120926   0.000783  -1.177022   0.922203  -0.981014  -1.178415   1.410059  -0.725190   2.045279  -0.987676   0.822445   0.001313  -1.359648   0.000549  -0.814864  -0.657976   1.488514  -2.902561   0.500689   0.189861   5.661830  -0.000175  -0.000444  -2.358676  -0.877986  -0.469302  -0.614606  -0.000029   0.000046  -3.227551   0.448126   0.226676   7.159458  -0.000237  -0.000922  -3.805174   0.306594  -0.248210   1.021428  -0.000047  -0.000136
  2.099756   0.921211   4.233369  -0.169429  -1.057262  -0.165648  -0.588623  -0.148746  -0.232664   0.404616   0.216294   0.576769   0.468173   0.054741  -0.398072  -0.799065  -0.541481   0.451661   1.015578   0.909191  -0.460912   0.001649  -0.267587   0.000485  -0.892108   1.093373  -0.744953  -0.480751   1.281695  -1.095714   1.709535  -0.778885   1.348119   0.000918  -1.431648   0.000414  -0.785993  -0.583095   1.041558  -2.824664   0.363014   0.150851   6.158178  -0.000052  -0.000545  -2.854654  -0.943800  -0.359308  -0.011486  -0.000080  -0.000313  -3.150901   0.292993   0.198859   7.645177  -0.000126  -0.000919  -4.141816   0.489213  -0.214546   1.020789  -0.000035  -0.000103
  2.100573   0.921019   4.234365  -0.394024  -1.082686  -0.207695  -0.255289  -0.175058  -0.149717  -0.051701   0.016293   0.709852   0.924488   0.349290  -0.507455  -0.349381  -0.306685   0.084902   0.639253   0.826689  -0.482558   0.001258  -0.414247   0.000185  -0.607884   1.265714  -0.509731   0.216034   1.148832  -1.464630   1.371903  -0.573185   1.874986   0.000522  -1.503647   0.000278  -0.756540  -0.508442   0.594570  -2.746862   0.225287   0.112028   6.654527   0.000069  -0.000648  -3.350514  -1.010563  -0.249885   0.591633  -0.000135  -0.000672  -3.074326   0.137822   0.171250   8.130896  -0.000014  -0.000917  -4.478576   0.671632  -0.179809   1.020150  -0.000024  -0.000069
  2.101390   0.920827   4.235361  -0.618640  -1.107945  -0.249841   0.078083  -0.200887  -0.066618  -0.507555  -0.184760   0.841339   1.381384   0.642958  -0.619185   0.101791  -0.074779  -0.283684   0.262904   0.744330  -0.504746   0.000866  -0.560908  -0.000115  -0.324350   1.439217  -0.275351   0.911918   1.011497  -1.831886   1.032404  -0.370603   2.403040   0.000126  -1.575647   0.000141  -0.726505  -0.434021   0.147549  -2.669154   0.087507   0.073393   7.150875   0.000190  -0.000751  -3.846256  -1.078270  -0.141042   1.194753  -0.000193  -0.001030  -2.997827  -0.017385   0.143848   8.616615   0.000097  -0.000916  -4.815461   0.853843  -0.143999   1.019511  -0.000012  -0.000036
